<?xml version="1.0" encoding="UTF-8"?><svg id="Layer_2" xmlns="http://www.w3.org/2000/svg" viewBox="0 0 276.82476 274.10847"><g id="Layer_1-2"><g><g><path d="M158.27452,155.26474c-5.35041,6.25116-13.25734,9.99437-21.61355,9.99437-15.66141,0-28.4026-12.73169-28.4026-28.38128s12.7412-28.38128,28.4026-28.38128c.33587,0,.66766,.02557,1.00161,.03713-.40252,.33532-.79113,.6868-1.16104,1.05727l-.19759,.21762-.0069,.0069c-2.94107,3.05156-4.76114,7.18961-4.76114,11.75102,0,9.35261,7.6147,16.96162,16.97444,16.96162s16.97468-7.60901,16.97468-16.96162c0-6.2314-3.38961-11.67376-8.41374-14.62249l-.0829-.05468c-.59814-.40808-1.21402-.7819-1.83158-1.1516l18.13016-13.27287h-13.19115l-13.21879,9.59985c-3.29108-.96229-6.72097-1.4711-10.21607-1.4711-20.02219,0-36.31146,16.27733-36.31146,36.28422s16.28927,36.28422,36.31146,36.28422c12.80281,0,24.79771-6.854,31.30411-17.88713l-.0175-.01018h-9.67307Zm-15.73285-40.59314h-.03093l.31957-.2271c.21864-.16984,.44351-.33106,.67701-.48132l5.03443-3.57792,5.03659,3.5793c.23039,.1484,.45238,.30765,.66862,.47528l.32604,.23177h-.03165c2.02864,1.70838,3.32033,4.26286,3.32033,7.12122,0,5.1434-4.17283,9.3129-9.32018,9.3129s-9.3197-4.1695-9.3197-9.3129c0-2.85836,1.29145-5.41284,3.31985-7.12122Z" style="fill:#0b25b7;"/><g><path d="M155.80746,71.39263c-6.8531-1.79073-10.36272-7.86708-8.60193-14.60419,1.75331-6.70868,7.79374-10.31932,14.6461-8.52934,5.58096,1.45847,8.95663,5.80022,8.98581,11.24499l-4.01847-1.05064c-.4228-3.22974-2.55027-5.73212-5.90349-6.6084-4.68448-1.2235-8.69921,1.37242-9.89278,5.9409-1.19432,4.56849,1.02969,8.82567,5.71341,10.04992,3.35471,.87628,6.38915-.21477,8.37518-2.84661l4.01847,1.04989c-2.75381,4.74808-7.77054,6.80372-13.32232,5.35347Z" style="fill:#0b25b7;"/><path d="M176.79856,65.97106c4.34624-5.55477,11.39241-6.26717,16.94793-1.92093,5.55702,4.34698,6.58521,11.3752,2.23972,16.93146-4.36494,5.57872-11.41635,6.24921-16.97187,1.90297-5.55627-4.34624-6.57997-11.33329-2.21577-16.9135Zm16.07988,12.57924c2.96484-3.79024,2.39836-8.59669-1.41507-11.58098-3.81343-2.98355-8.5922-2.3572-11.55704,1.43303-2.98355,3.81418-2.44027,8.60267,1.37317,11.58622,3.81268,2.9828,8.6154,2.37516,11.59894-1.43827Z" style="fill:#0b25b7;"/><path d="M199.30499,93.7741l-5.83838,3.57098-2.02645-3.31505,17.00405-10.39939c1.68297-1.02894,3.61363-.56274,4.64257,1.11949l3.19682,5.22551c2.55626,4.18161,1.67998,8.9918-2.50163,11.54806-4.2063,2.57272-8.97384,1.24969-11.54581-2.95661l-2.93117-4.79298Zm3.1362-1.91719l2.93042,4.79223c1.41956,2.31979,4.03344,2.92892,6.35323,1.51011,2.26815-1.38813,2.76953-4.00575,1.39711-6.24921l-2.447-4.00276c-.28212-.45947-.81567-.58743-1.27439-.30681l-6.95937,4.25644Z" style="fill:#0b25b7;"/><path d="M205.75176,129.41802l-2.9177-12.60768c-.49763-2.15366,.50212-3.79697,2.68572-4.30134l15.72218-3.63833c2.15516-.49838,3.8037,.53131,4.30209,2.68572l2.88327,12.46175-3.60989,.83512-2.60714-11.26744c-.12796-.55301-.55825-.8224-1.08207-.70043l-4.86258,1.12472,2.68796,11.6169-3.4939,.80818-2.68796-11.6169-5.38565,1.24595c-.55376,.12796-.82165,.55899-.69444,1.11125l2.64082,11.41411-3.58071,.82839Z" style="fill:#0b25b7;"/><path d="M205.77795,138.0656l.48192-3.73411,18.67056,2.41483c2.90497,.3764,4.38365,2.22475,4.04691,4.83264-.25742,1.98529-1.30432,3.08532-4.24671,3.94065l-15.86361,4.99802c-.47443,.1796-.73859,.3562-.78499,.7124-.04939,.38464,.15266,.68247,.62709,.74383l18.46252,2.38789-.48641,3.76479-18.6713-2.41632c-2.93266-.3794-4.38964-2.16489-4.05215-4.77203,.25667-1.98604,1.34398-3.17138,4.228-4.03344l15.86286-4.99877c.47144-.14966,.76553-.32253,.81492-.70791,.05014-.38538-.18259-.68696-.62634-.74458l-18.46327-2.38789Z" style="fill:#0b25b7;"/><path d="M202.27732,180.08969l6.30384-10.89103-8.92445-5.1649,1.94563-3.36369,20.17767,11.67826-1.94563,3.36295-8.07137-4.67101-6.30309,10.89103,8.07137,4.67175-1.94638,3.36295-20.17917-11.67826,1.94713-3.36369,8.92445,5.16565Z" style="fill:#0b25b7;"/><path d="M180.1847,196.34542l8.11178-6.50588-2.10203-6.20431,3.12348-2.50462,6.77752,21.10858c.63757,1.94039,.48416,3.13546-.98404,4.31331-1.53854,1.23323-2.83538,1.23996-4.63359,.19232l-19.15621-11.18213,3.21702-2.57946,5.64607,3.3622Zm9.35773-2.75531l-5.9439,4.76754,8.49941,5.05789c.20055,.10701,.34498,.14368,.50811,.01272,.13994-.1115,.15864-.27987,.09878-.49838l-3.1624-9.33977Z" style="fill:#0b25b7;"/><path d="M151.00026,212.43502c-2.02345-6.22601,1.85059-10.94117,7.4787-12.77006,6.7663-2.19856,13.16143,.84635,15.35027,7.58346,2.17012,6.68024-.99676,12.89503-7.70544,15.07488-5.37293,1.74508-10.4166,.05313-13.23926-4.1846l3.95262-1.28337c2.06012,2.37816,5.12,2.89375,8.13198,1.9142,4.57747-1.48691,6.58521-5.75382,5.10802-10.30136-1.51609-4.66277-5.85634-6.80297-10.48993-5.29735-3.95187,1.28337-5.75158,4.25644-5.01224,6.53058l.04565,.14218c.1115,.34123,.30906,.4662,.64954,.3547l6.9646-2.26292,1.08132,3.32553-9.60841,3.12273c-1.13744,.36892-2.13495-.18708-2.50462-1.32378l-.20279-.62485Z" style="fill:#0b25b7;"/><path d="M126.76595,202.66273l12.92945,.50811c2.20979,.08755,3.52982,1.48466,3.44302,3.72438l-.63383,16.12478c-.08755,2.20979-1.51535,3.52907-3.72513,3.44152l-12.77979-.50137,.14592-3.70268,11.55554,.45348c.56797,.02245,.93989-.32178,.96084-.85907l.19606-4.9868-11.91398-.46845,.14068-3.58295,11.91398,.46845,.21701-5.52409c.02245-.56723-.32178-.93989-.889-.96234l-11.70446-.45947,.14368-3.6735Z" style="fill:#0b25b7;"/><path d="M118.4237,200.39233l3.47145,1.46072-7.30359,17.35501c-1.13595,2.69919-3.31206,3.63234-5.73586,2.61238-1.8461-.7775-2.6281-2.07883-2.66701-5.14394l-.59192-16.6239c-.04565-.50586-.14592-.80744-.47668-.94662-.3577-.15116-.69893-.03442-.88451,.40634l-7.22277,17.16195-3.49764-1.47269,7.30284-17.35501c1.14792-2.72687,3.25743-3.65554,5.68124-2.63483,1.8461,.77675,2.69919,2.14094,2.7613,5.15068l.59117,16.6239c.01871,.49464,.10776,.82315,.46545,.97431,.35844,.15041,.7109,.00748,.88451-.40634l7.22203-17.16195Z" style="fill:#0b25b7;"/><path d="M83.70395,174.43838c4.12773,5.75457,2.94688,12.67054-2.71041,16.72792-5.63334,4.04167-12.58672,2.96185-16.71445-2.79273-3.3607-4.68597-3.18559-10.18237,.26939-14.38868l2.42081,3.37492c-1.7376,2.75456-1.69943,6.03744,.32028,8.85336,2.82266,3.93391,7.5685,4.50039,11.40513,1.74882,3.83588-2.75157,4.84462-7.44727,2.02196-11.38118-2.01971-2.81592-5.05115-3.91446-8.2592-3.15716l-2.42156-3.37567c5.15143-1.89325,10.32381-.27089,13.66804,4.39039Z" style="fill:#0b25b7;"/><path d="M66.19852,149.76407l2.65953,10.05366,6.52384,.59267,1.0237,3.8718-22.04547-2.36169c-2.03243-.20429-3.06212-.82914-3.54329-2.6483-.50437-1.90672,.01571-3.0958,1.70243-4.31481l17.98884-12.97884,1.05363,3.98704-5.3632,3.79847Zm-1.27439,9.67202l-1.94862-7.3672-8.06912,5.72015c-.18034,.13994-.27239,.25667-.21851,.45872,.04565,.17361,.19157,.25892,.41681,.29184l9.81944,.89649Z" style="fill:#0b25b7;"/><path d="M63.36464,128.43099l-.49015,5.32728,8.18362,.75281-.35545,3.86956-19.64187-1.80869c-2.08332-.19157-3.43404-1.81692-3.24247-3.90024l.66825-7.26094c.40933-4.43379,3.58669-7.65306,8.28913-7.22053,3.51036,.32327,5.66477,3.01348,6.39364,6.17139l9.30609-5.23599-.42205,4.58345-8.68873,4.72189Zm-4.12099,4.99278l.64056-6.96386c.20354-2.2023-1.03118-4.1165-3.4707-4.341-2.4702-.22749-4.03643,1.45922-4.23698,3.63159l-.55525,6.04118c-.04939,.5358,.36144,.96383,.83737,1.00724l6.78501,.62485Z" style="fill:#0b25b7;"/><path d="M60.10272,98.42415l17.85938,8.08933-1.60365,3.53955-17.85863-8.08933-3.24321,7.15917-3.37567-1.52882,8.08933-17.85863,3.37567,1.52882-3.24321,7.15992Z" style="fill:#0b25b7;"/><path d="M94.54933,84.26446l-8.67376,9.60018c-1.48317,1.64106-3.40261,1.7593-5.06537,.25667l-11.9731-10.8177c-1.64106-1.48317-1.73909-3.42431-.25667-5.06537l8.57499-9.48943,2.74932,2.48442-7.75333,8.58022c-.38089,.4213-.3547,.92792,.04415,1.28861l3.70268,3.34573,7.99279-8.84663,2.66027,2.4036-7.99279,8.84663,4.10228,3.70642c.4213,.38015,.92717,.3547,1.30806-.0666l7.85286-8.69098,2.72762,2.46421Z" style="fill:#0b25b7;"/><path d="M101.7534,79.5725c-1.92393,1.15091-3.76853,.68696-4.91795-1.23697l-10.12401-16.93221,3.33526-1.99352,9.60168,16.05892c.2911,.48716,.78349,.61138,1.27065,.32028l8.61989-5.15367,1.88651,3.15566-9.67202,5.78151Z" style="fill:#0b25b7;"/><path d="M107.48926,55.31051c-.93615-3.006,.556-5.78675,3.56275-6.7229s5.82566,.50137,6.76331,3.50812c.93914,3.01947-.57321,5.77852-3.57996,6.71467-2.99402,.93241-5.80995-.49314-6.74609-3.49989Zm9.24997-2.88028c-.74009-2.37891-2.96783-3.5388-5.36096-2.79347-2.37891,.74084-3.55526,2.9596-2.81443,5.34,.74907,2.4051,2.96858,3.5388,5.34898,2.79722,2.39238-.74458,3.57622-2.9379,2.8264-5.34375Zm-3.95187,2.04516l-.9339,.2911,.64505,2.07284-1.1135,.34647-1.42555-4.58046c-.21552-.69145,.0898-1.3335,.78124-1.54827l1.48392-.46246c1.12547-.35096,2.20679,.09878,2.55252,1.21153,.28735,.92193-.0898,1.74059-.84036,2.21353l1.97556,1.61562-1.25343,.39062-1.87155-1.55052Zm-1.25269-.7326l1.52283-.47443c.49838-.1549,.74907-.61212,.59342-1.11125-.1549-.49913-.61811-.67798-1.10377-.52607l-1.20255,.37416c-.1796,.05612-.28436,.21477-.22824,.39362l.41831,1.34398Z" style="fill:#0b25b7;"/></g></g><rect width="276.82476" height="274.10847" style="fill:none;"/></g></g></svg>