<?xml version="1.0" encoding="UTF-8"?><svg id="Layer_1" xmlns="http://www.w3.org/2000/svg" viewBox="0 0 561.82 209.35"><defs><style>.cls-1{fill:#0b25b7;}.cls-2{fill:none;}</style></defs><g><g><path class="cls-1" d="M177.13,105.24c-9.59,0-16.27-6.76-16.27-16.19s6.68-16.19,16.27-16.19c7.81,0,13.72,4.53,15.62,11.65h-5.62c-1.66-4.09-5.3-6.64-10-6.64-6.56,0-10.93,4.77-10.93,11.17s4.37,11.21,10.93,11.21c4.69,0,8.29-2.47,10-6.6h5.62c-1.98,7.16-7.85,11.57-15.62,11.57Z"/><path class="cls-1" d="M197.44,89.05c0-9.55,6.92-16.19,16.47-16.19s16.51,6.64,16.51,16.19-6.96,16.19-16.51,16.19-16.47-6.6-16.47-16.19Zm27.64,0c0-6.52-4.61-11.17-11.17-11.17s-11.13,4.65-11.13,11.17,4.57,11.21,11.13,11.21,11.17-4.65,11.17-11.21Z"/><path class="cls-1" d="M242.19,95.57v9.27h-5.26v-26.99c0-2.67,1.9-4.57,4.57-4.57h8.3c6.64,0,11.57,4.41,11.57,11.05s-4.9,11.25-11.57,11.25h-7.61Zm0-4.98h7.61c3.68,0,6.23-2.59,6.23-6.27s-2.67-6.03-6.23-6.03h-6.35c-.73,0-1.25,.53-1.25,1.25v11.05Z"/><path class="cls-1" d="M289.54,104.83h-17.52c-2.99,0-4.86-1.82-4.86-4.86v-21.85c0-2.99,1.86-4.86,4.86-4.86h17.32v5.02h-15.66c-.77,0-1.25,.49-1.25,1.21v6.76h16.15v4.86h-16.15v7.49c0,.77,.49,1.25,1.25,1.25h15.86v4.98Z"/><path class="cls-1" d="M302.11,104.83h-5.1v-25.49c0-3.97,2.23-6.27,5.79-6.27,2.71,0,4.37,1.21,6.03,5.02l9.47,20.44c.32,.61,.61,.93,1.09,.93,.53,0,.89-.32,.89-.97v-25.21h5.14v25.49c0,4.01-2.14,6.27-5.71,6.27-2.71,0-4.49-1.25-6.15-4.98l-9.47-20.44c-.28-.61-.57-.97-1.09-.97s-.89,.36-.89,.97v25.21Z"/><path class="cls-1" d="M356.17,90.87h-17.04v13.96h-5.26v-31.56h5.26v12.62h17.04v-12.62h5.26v31.56h-5.26v-13.96Z"/><path class="cls-1" d="M388.94,96.5h-14.08l-3.04,8.34h-5.42l10.72-28.04c.97-2.59,2.14-3.72,4.69-3.72s4.05,1.09,5.06,3.72l10.76,28.04h-5.58l-3.12-8.34Zm-12.22-5.02h10.32l-4.69-12.54c-.12-.28-.24-.45-.53-.45-.24,0-.4,.16-.53,.45l-4.57,12.54Z"/><path class="cls-1" d="M431.64,91.92c0,8.86-6.96,13.31-14.97,13.31-9.63,0-16.59-6.6-16.59-16.19s6.68-16.19,16.23-16.19c7.65,0,13.44,4.29,15.3,10.93h-5.62c-1.66-3.93-5.38-5.87-9.67-5.87-6.51,0-10.88,4.65-10.88,11.13s4.69,11.21,11.29,11.21c5.62,0,9.19-3.08,9.19-6.31v-.2c0-.49-.2-.73-.69-.73h-9.92v-4.73h13.68c1.62,0,2.67,1.13,2.67,2.75v.89Z"/><path class="cls-1" d="M461.2,104.83h-17.52c-2.99,0-4.86-1.82-4.86-4.86v-21.85c0-2.99,1.86-4.86,4.86-4.86h17.32v5.02h-15.66c-.77,0-1.25,.49-1.25,1.21v6.76h16.15v4.86h-16.15v7.49c0,.77,.49,1.25,1.25,1.25h15.86v4.98Z"/><path class="cls-1" d="M473.77,104.83h-5.1v-25.49c0-3.97,2.23-6.27,5.79-6.27,2.71,0,4.37,1.21,6.03,5.02l9.47,20.44c.32,.61,.61,.93,1.09,.93,.53,0,.89-.32,.89-.97v-25.21h5.14v25.49c0,4.01-2.14,6.27-5.71,6.27-2.71,0-4.49-1.25-6.15-4.98l-9.47-20.44c-.28-.61-.57-.97-1.09-.97s-.89,.36-.89,.97v25.21Z"/><path class="cls-1" d="M177.13,145.01c-9.59,0-16.27-6.76-16.27-16.19s6.68-16.19,16.27-16.19c7.81,0,13.72,4.53,15.62,11.65h-5.62c-1.66-4.09-5.3-6.64-10-6.64-6.56,0-10.93,4.77-10.93,11.17s4.37,11.21,10.93,11.21c4.69,0,8.29-2.47,10-6.6h5.62c-1.98,7.16-7.85,11.57-15.62,11.57Z"/><path class="cls-1" d="M217.76,136.27h-14.08l-3.04,8.34h-5.42l10.72-28.04c.97-2.59,2.14-3.72,4.69-3.72s4.05,1.09,5.06,3.72l10.76,28.04h-5.58l-3.12-8.34Zm-12.22-5.02h10.32l-4.69-12.54c-.12-.28-.24-.45-.53-.45-.24,0-.41,.16-.53,.45l-4.57,12.54Z"/><path class="cls-1" d="M243.9,133.47h-7.24v11.13h-5.26v-26.71c0-2.83,2.02-4.86,4.86-4.86h9.87c6.03,0,10.76,3.88,10.76,10.28,0,4.77-3.36,8.01-7.53,9.39l8.21,11.9h-6.23l-7.45-11.13Zm-7.24-4.94h9.47c3,0,5.42-1.9,5.42-5.22s-2.47-5.26-5.42-5.26h-8.21c-.73,0-1.25,.61-1.25,1.25v9.23Z"/><path class="cls-1" d="M277.2,118.06v26.55h-5.26v-26.55h-10.64v-5.02h26.55v5.02h-10.64Z"/><path class="cls-1" d="M315.66,144.6h-17.52c-2.99,0-4.86-1.82-4.86-4.86v-21.85c0-2.99,1.86-4.86,4.86-4.86h17.32v5.02h-15.66c-.77,0-1.25,.49-1.25,1.21v6.76h16.15v4.86h-16.15v7.49c0,.77,.49,1.25,1.25,1.25h15.86v4.98Z"/><path class="cls-1" d="M327.72,144.6c-3.04,0-4.86-1.82-4.86-4.86v-26.71h5.26v25.33c0,.77,.49,1.25,1.25,1.25h13.6v4.98h-15.26Z"/><path class="cls-1" d="M347.36,119.79c0-4.11,2.94-6.99,7.05-6.99s7.07,2.89,7.07,6.99-2.96,6.98-7.07,6.98-7.05-2.87-7.05-6.98Zm12.83,0c0-3.38-2.41-5.75-5.79-5.75s-5.79,2.38-5.79,5.75,2.41,5.75,5.79,5.75,5.79-2.36,5.79-5.75Zm-5.8,.96h-1.57v2.92h-1.31v-6.31c0-.94,.63-1.63,1.57-1.63h2.03c1.5,0,2.67,.96,2.67,2.48,0,1.28-.82,2.17-1.98,2.45l1.91,2.83h-1.49l-1.84-2.75Zm-1.57-1.21h2.29c.77,0,1.35-.52,1.35-1.33s-.59-1.26-1.35-1.26h-1.77c-.31,0-.52,.23-.52,.54v2.05Z"/></g><path class="cls-1" d="M122.17,127.01c-5.3,6.2-13.14,9.91-21.43,9.91-15.53,0-28.16-12.62-28.16-28.14s12.63-28.14,28.16-28.14c.33,0,.66,.03,.99,.04-.4,.33-.78,.68-1.15,1.05l-.2,.22h0c-2.92,3.03-4.72,7.13-4.72,11.66,0,9.27,7.55,16.82,16.83,16.82s16.83-7.54,16.83-16.82c0-6.18-3.36-11.57-8.34-14.5l-.08-.05c-.59-.4-1.2-.78-1.82-1.14l17.97-13.16h-13.08l-13.11,9.52c-3.26-.95-6.66-1.46-10.13-1.46-19.85,0-36,16.14-36,35.97s16.15,35.97,36,35.97c12.69,0,24.58-6.8,31.04-17.73h-.02s-9.59-.01-9.59-.01Zm-15.6-40.24h-.03l.32-.23c.22-.17,.44-.33,.67-.48l4.99-3.55,4.99,3.55c.23,.15,.45,.31,.66,.47l.32,.23h-.03c2.01,1.69,3.29,4.23,3.29,7.06,0,5.1-4.14,9.23-9.24,9.23s-9.24-4.13-9.24-9.23c0-2.83,1.28-5.37,3.29-7.06Z"/></g><rect class="cls-2" width="561.82" height="209.35"/></svg>